# Blender v2.93.0 OBJ File: 'pine_tree.blend'
# www.blender.org
mtllib pine_tree.mtl
o blad1.002_Cone.002
v 0.068002 5.696738 -3.599138
v 1.842610 5.927752 -3.123545
v 3.141713 5.551260 -1.824204
v 3.617218 5.961753 -0.049270
v 3.169640 5.440171 1.725663
v 1.842610 5.927752 3.025005
v 0.068002 6.210379 3.284653
v -1.706606 5.634450 3.025005
v -3.005709 5.834860 1.725663
v -3.481214 5.825749 -0.049270
v -3.244175 5.409573 -1.824204
v -1.706607 5.859750 -3.123545
v -0.068002 12.992182 -0.049270
v 0.000000 4.375231 -4.007535
v 2.003767 4.502700 -3.470627
v 3.470627 4.627395 -2.003767
v 4.174549 4.218184 0.000000
v 3.470627 4.628864 2.003767
v 2.003767 4.339634 3.470627
v -0.000000 4.601169 4.007535
v -2.003767 4.414372 3.470627
v -3.470627 4.615541 2.003767
v -3.801019 4.208222 -0.000000
v -3.470627 4.502700 -2.003767
v -2.003768 4.692294 -3.470627
v -0.000000 12.517770 0.000000
v -0.051476 8.516252 -2.547487
v 1.312281 8.266618 -2.263349
v 2.111583 8.471672 -1.298378
v 2.539574 8.439108 -0.087525
v 2.111583 8.471672 1.199838
v 1.197367 8.200262 2.114248
v -0.051476 8.516252 2.284144
v -1.300319 7.914277 2.114248
v -2.214535 8.560831 1.199838
v -2.549162 8.233531 -0.049270
v -2.214535 8.560831 -1.298378
v -1.300319 8.295333 -2.212789
v 0.051476 13.511623 -0.049270
v 0.173764 10.288912 -1.955577
v 1.126912 9.944170 -1.700181
v 1.824664 10.283030 -1.002424
v 2.080059 9.952347 -0.049270
v 1.824664 10.283030 0.903883
v 0.849241 9.947788 1.463979
v 0.173764 10.288912 1.857037
v -0.779383 9.912430 1.601640
v -1.477136 10.294794 0.903883
v -1.732531 10.110607 -0.049270
v -1.477136 10.294794 -1.002424
v -0.779384 10.114775 -1.700181
v 0.187349 14.101501 -0.049270
v 0.119246 11.468988 -1.499407
v 0.843665 11.812895 -1.305125
v 1.373978 11.410014 -0.774338
v 1.568085 11.782239 -0.049270
v 1.373978 11.419093 0.675798
v 0.843666 11.812895 1.206584
v 0.119246 11.476322 1.400866
v -0.605174 11.874205 1.206584
v -1.135486 11.602264 0.675798
v -1.329594 11.904860 -0.049270
v -1.135486 11.533352 -0.774338
v -0.605174 11.874205 -1.305125
v 0.241868 14.741228 -0.049270
v 0.000000 -0.000001 -1.000000
v 0.000000 5.674439 -1.000000
v 0.781832 0.000000 -0.623490
v 0.781832 5.674440 -0.623490
v 0.974928 0.000000 0.222521
v 0.974928 5.674440 0.222521
v 0.433884 -0.000001 0.900969
v 0.433884 5.674440 0.900969
v -0.433884 0.000000 0.900969
v -0.433884 5.674440 0.900969
v -0.974928 0.000000 0.222521
v -0.974928 5.674440 0.222521
v -0.781832 0.000000 -0.623490
v -0.781832 5.674440 -0.623490
vt 0.235087 0.387616
vt 0.263021 0.531996
vt 0.204916 0.400742
vt 0.175101 0.410034
vt 0.161191 0.433238
vt 0.424467 0.323080
vt 0.531277 0.239114
vt 0.424818 0.345988
vt 0.447434 0.356024
vt 0.478540 0.365299
vt 0.505307 0.384385
vt 0.531277 0.381339
vt 0.629949 0.239114
vt 0.629949 0.382761
vt 0.599592 0.242191
vt 0.566350 0.244247
vt 0.566045 0.139424
vt 0.549473 0.168261
vt 0.520623 0.185030
vt 0.487354 0.185030
vt 0.458290 0.169007
vt 0.441753 0.139631
vt 0.445494 0.107287
vt 0.458248 0.077499
vt 0.487080 0.060758
vt 0.520390 0.060694
vt 0.550341 0.073178
vt 0.565991 0.106094
vt 0.543926 0.268276
vt 0.263021 0.388873
vt 0.334566 0.195291
vt 0.429103 0.060694
vt 0.368197 0.210955
vt 0.403221 0.219016
vt 0.429103 0.226465
vt 0.687286 0.060694
vt 0.687286 0.136370
vt 0.650962 0.073455
vt 0.161191 0.323077
vt 0.276813 0.213714
vt 0.180278 0.347634
vt 0.214189 0.361422
vt 0.247587 0.374967
vt 0.276813 0.372604
vt 0.314207 0.366543
vt 0.411818 0.239114
vt 0.342527 0.389540
vt 0.378620 0.398012
vt 0.282676 0.182301
vt 0.250116 0.201064
vt 0.212532 0.201020
vt 0.177771 0.184364
vt 0.161207 0.149605
vt 0.161191 0.112025
vt 0.180063 0.079452
vt 0.212614 0.060694
vt 0.250252 0.060710
vt 0.280085 0.082221
vt 0.301558 0.112134
vt 0.301558 0.149723
vt 0.411818 0.398057
vt 0.314207 0.169949
vt 0.532345 0.479464
vt 0.591133 0.397034
vt 0.552323 0.495211
vt 0.573952 0.496805
vt 0.591133 0.497859
vt 0.503988 0.401989
vt 0.503988 0.498274
vt 0.492611 0.398543
vt 0.472512 0.397034
vt 0.454478 0.411521
vt 0.430526 0.414462
vt 0.424467 0.437364
vt 0.578694 0.142524
vt 0.638312 0.060694
vt 0.595583 0.158297
vt 0.619686 0.160060
vt 0.314207 0.444671
vt 0.325554 0.422060
vt 0.346158 0.412578
vt 0.369367 0.410707
vt 0.389929 0.424199
vt 0.401725 0.444427
vt 0.398862 0.467147
vt 0.390137 0.488141
vt 0.369799 0.500008
vt 0.346390 0.500008
vt 0.326028 0.488387
vt 0.314285 0.468073
vt 0.638312 0.165648
vt 0.516637 0.470217
vt 0.341938 0.512657
vt 0.355618 0.576093
vt 0.331604 0.522502
vt 0.317990 0.523148
vt 0.314208 0.536053
vt 0.650962 0.190343
vt 0.687638 0.149020
vt 0.651690 0.202092
vt 0.662018 0.201919
vt 0.672884 0.212104
vt 0.687638 0.207799
vt 0.368268 0.553391
vt 0.409323 0.512657
vt 0.372490 0.564360
vt 0.384928 0.565849
vt 0.395813 0.575833
vt 0.301827 0.253713
vt 0.301822 0.240182
vt 0.308626 0.228328
vt 0.320406 0.221593
vt 0.334015 0.221516
vt 0.345798 0.228380
vt 0.352606 0.240087
vt 0.352606 0.253757
vt 0.345807 0.265484
vt 0.334022 0.272346
vt 0.320418 0.272286
vt 0.308630 0.265559
vt 0.409323 0.571385
vt 0.355618 0.517727
vt 0.784740 0.732501
vt 0.784740 0.827260
vt 0.769013 0.827398
vt 0.769013 0.732639
vt 0.759485 0.832269
vt 0.759485 0.737510
vt 0.286045 0.776041
vt 0.286045 0.681150
vt 0.296208 0.685786
vt 0.296208 0.780676
vt 0.311932 0.685609
vt 0.311932 0.780499
vt 0.644410 0.794910
vt 0.644410 0.700286
vt 0.654612 0.704982
vt 0.654612 0.799606
vt 0.533973 0.811491
vt 0.528100 0.799297
vt 0.533973 0.787102
vt 0.547169 0.784090
vt 0.557751 0.792529
vt 0.557751 0.806064
vt 0.547169 0.814503
vt 0.670334 0.704782
vt 0.670334 0.799406
vt 0.794823 0.737200
vt 0.794823 0.831958
vt 0.493497 0.807112
vt 0.487624 0.794918
vt 0.493497 0.782724
vt 0.506692 0.779711
vt 0.517274 0.788149
vt 0.517274 0.801684
vt 0.506692 0.810123
vt 0.646158 0.400541
vt 0.659610 0.476608
vt 0.627213 0.400379
vt 0.614449 0.413916
vt 0.603783 0.417824
vt 0.605457 0.430444
vt 0.571632 0.512291
vt 0.571632 0.588915
vt 0.551464 0.510508
vt 0.541130 0.518106
vt 0.523642 0.520639
vt 0.516638 0.535869
vt 0.424467 0.573282
vt 0.470012 0.510923
vt 0.437662 0.584337
vt 0.455692 0.586790
vt 0.608388 0.506535
vt 0.621083 0.493843
vt 0.638315 0.489257
vt 0.655639 0.493845
vt 0.668242 0.506536
vt 0.668241 0.526883
vt 0.668242 0.541093
vt 0.655646 0.553693
vt 0.638315 0.558371
vt 0.621062 0.553718
vt 0.608388 0.541092
vt 0.603783 0.523791
vt 0.470012 0.590755
vt 0.659610 0.397034
vn 0.1803 0.4331 -0.8831
vn 0.6964 0.4363 -0.5698
vn 0.8374 0.4389 -0.3258
vn 0.8334 0.4369 0.3385
vn 0.7066 0.4342 0.5587
vn 0.1979 0.4356 0.8781
vn -0.2637 0.4213 0.8677
vn -0.6096 0.4173 0.6739
vn -0.8780 0.4182 0.2331
vn -0.8815 0.4198 -0.2162
vn 0.0037 -0.9997 0.0222
vn -0.6542 0.4211 -0.6283
vn -0.1975 0.4259 -0.8829
vn 0.2077 0.4320 -0.8777
vn 0.6170 0.4375 -0.6542
vn 0.8721 0.4387 -0.2168
vn 0.8722 0.4387 0.2165
vn 0.5931 0.4333 0.6786
vn 0.2856 0.4328 0.8550
vn -0.2707 0.4348 0.8589
vn -0.6062 0.4351 0.6658
vn -0.9074 0.4151 0.0652
vn -0.9058 0.4143 -0.0885
vn -0.0001 -1.0000 -0.0044
vn -0.6631 0.4388 -0.6064
vn -0.1681 0.4353 -0.8845
vn 0.2587 0.4278 -0.8661
vn 0.6519 0.4225 -0.6297
vn 0.8579 0.4230 -0.2918
vn 0.8636 0.4215 0.2765
vn 0.5806 0.4114 0.7026
vn 0.2238 0.4087 0.8848
vn -0.3130 0.4072 0.8580
vn -0.4799 0.4147 0.7731
vn -0.8902 0.4386 0.1235
vn -0.8902 0.4386 -0.1235
vn 0.0107 -0.9996 -0.0259
vn -0.5697 0.4365 -0.6963
vn -0.3040 0.4311 -0.8496
vn 0.0538 0.4029 -0.9137
vn 0.7825 0.3742 -0.4977
vn 0.8308 0.3724 -0.4136
vn 0.8324 0.3731 0.4097
vn 0.7800 0.3751 0.5009
vn 0.0575 0.4034 0.9132
vn -0.0217 0.4065 0.9134
vn -0.7376 0.4416 0.5107
vn -0.8017 0.4442 0.4000
vn -0.7878 0.4365 -0.4345
vn -0.0516 -0.9987 0.0053
vn -0.7611 0.4354 -0.4808
vn -0.0182 0.4057 -0.9138
vn 0.4339 0.0000 -0.9010
vn 0.9749 0.0000 -0.2225
vn 0.7818 0.0000 0.6235
vn 0.0000 0.0000 1.0000
vn -0.7818 0.0000 0.6235
vn 0.0000 1.0000 -0.0000
vn -0.9749 0.0000 -0.2225
vn -0.4339 0.0000 -0.9010
vn -0.0000 -1.0000 0.0000
vn 0.3723 0.4140 -0.8307
vn 0.5356 0.4135 -0.7364
vn 0.9053 0.4130 -0.0993
vn 0.9053 0.4130 0.0993
vn 0.3640 0.3695 0.8550
vn 0.5979 0.3568 0.7178
vn -0.3846 0.4139 0.8251
vn -0.5199 0.4144 0.7470
vn -0.8901 0.4282 0.1558
vn -0.8901 0.4282 -0.1558
vn -0.0220 -0.9996 -0.0155
vn -0.5817 0.4276 -0.6920
vn -0.3060 0.4266 -0.8511
usemtl Material.009
s off
f 1/1/1 13/2/1 2/3/1
f 2/3/2 13/2/2 3/4/2
f 3/4/3 13/2/3 4/5/3
f 4/6/4 13/7/4 5/8/4
f 5/8/5 13/7/5 6/9/5
f 6/9/6 13/7/6 7/10/6
f 7/10/7 13/7/7 8/11/7
f 8/11/8 13/7/8 9/12/8
f 9/13/9 13/14/9 10/15/9
f 10/15/10 13/14/10 11/16/10
f 1/17/11 2/18/11 3/19/11 4/20/11 5/21/11 6/22/11 7/23/11 8/24/11 9/25/11 10/26/11 11/27/11 12/28/11
f 11/16/12 13/14/12 12/29/12
f 12/30/13 13/2/13 1/1/13
f 14/31/14 26/32/14 15/33/14
f 15/33/15 26/32/15 16/34/15
f 16/34/16 26/32/16 17/35/16
f 17/36/17 26/37/17 18/38/17
f 18/39/18 26/40/18 19/41/18
f 19/41/19 26/40/19 20/42/19
f 20/42/20 26/40/20 21/43/20
f 21/43/21 26/40/21 22/44/21
f 22/45/22 26/46/22 23/47/22
f 23/47/23 26/46/23 24/48/23
f 14/49/24 15/50/24 16/51/24 17/52/24 18/53/24 19/54/24 20/55/24 21/56/24 22/57/24 23/58/24 24/59/24 25/60/24
f 24/48/25 26/46/25 25/61/25
f 25/62/26 26/32/26 14/31/26
f 27/63/27 39/64/27 28/65/27
f 28/65/28 39/64/28 29/66/28
f 29/66/29 39/64/29 30/67/29
f 30/68/30 39/69/30 31/70/30
f 31/70/31 39/69/31 32/71/31
f 32/71/32 39/69/32 33/72/32
f 33/72/33 39/69/33 34/73/33
f 34/73/34 39/69/34 35/74/34
f 35/75/35 39/76/35 36/77/35
f 36/77/36 39/76/36 37/78/36
f 27/79/37 28/80/37 29/81/37 30/82/37 31/83/37 32/84/37 33/85/37 34/86/37 35/87/37 36/88/37 37/89/37 38/90/37
f 37/78/38 39/76/38 38/91/38
f 38/92/39 39/64/39 27/63/39
f 53/93/40 65/94/40 54/95/40
f 54/95/41 65/94/41 55/96/41
f 55/96/42 65/94/42 56/97/42
f 56/98/43 65/99/43 57/100/43
f 57/100/44 65/99/44 58/101/44
f 58/101/45 65/99/45 59/102/45
f 59/102/46 65/99/46 60/103/46
f 60/104/47 65/105/47 61/106/47
f 61/106/48 65/105/48 62/107/48
f 62/107/49 65/105/49 63/108/49
f 53/109/50 54/110/50 55/111/50 56/112/50 57/113/50 58/114/50 59/115/50 60/116/50 61/117/50 62/118/50 63/119/50 64/120/50
f 63/108/51 65/105/51 64/121/51
f 64/122/52 65/94/52 53/93/52
f 66/123/53 67/124/53 69/125/53 68/126/53
f 68/126/54 69/125/54 71/127/54 70/128/54
f 70/129/55 71/130/55 73/131/55 72/132/55
f 72/132/56 73/131/56 75/133/56 74/134/56
f 74/135/57 75/136/57 77/137/57 76/138/57
f 69/139/58 67/140/58 79/141/58 77/142/58 75/143/58 73/144/58 71/145/58
f 76/138/59 77/137/59 79/146/59 78/147/59
f 78/148/60 79/149/60 67/124/60 66/123/60
f 66/150/61 68/151/61 70/152/61 72/153/61 74/154/61 76/155/61 78/156/61
usemtl Material.008
f 40/157/62 52/158/62 41/159/62
f 41/159/63 52/158/63 42/160/63
f 42/160/64 52/158/64 43/161/64
f 43/161/65 52/158/65 44/162/65
f 44/163/66 52/164/66 45/165/66
f 45/165/67 52/164/67 46/166/67
f 46/166/68 52/164/68 47/167/68
f 47/167/69 52/164/69 48/168/69
f 48/169/70 52/170/70 49/171/70
f 49/171/71 52/170/71 50/172/71
f 40/173/72 41/174/72 42/175/72 43/176/72 44/177/72 45/178/72 46/179/72 47/180/72 48/181/72 49/182/72 50/183/72 51/184/72
f 50/172/73 52/170/73 51/185/73
f 51/186/74 52/158/74 40/157/74
